<?xml version="1.0" encoding="UTF-8"?>
<svg width="35px" height="23px" viewBox="0 0 35 23" version="1.1" xmlns="http://www.w3.org/2000/svg" xmlns:xlink="http://www.w3.org/1999/xlink">
    <title>rhino</title>
    <defs>
        <polygon id="path-1" points="0 0.5 35 0.5 35 22.5 0 22.5"></polygon>
    </defs>
    <g id="design" stroke="none" stroke-width="1" fill="none" fill-rule="evenodd">
        <g id="Mobile" transform="translate(-21.000000, -19.000000)">
            <g id="header-hero">
                <g id="rhino" transform="translate(21.000000, 19.000000)">
                    <mask id="mask-2" fill="white">
                        <use xlink:href="#path-1"></use>
                    </mask>
                    <g id="Clip-798"></g>
                    <path d="M15.510488,22.2523925 L15.5367953,22.245268 L15.5538092,22.2475479 C15.5412275,22.2492578 15.5266441,22.2509676 15.510488,22.2523925 Z M2.17168278,12.8735532 L2.15395394,12.8719858 L2.17168278,12.8735532 Z M13.8552723,20.622876 C13.8169551,20.6421122 13.7797817,20.6651956 13.7430373,20.6902738 C13.6671178,20.5204257 13.5686084,20.3485826 13.452942,20.1884238 L13.4535139,20.1889937 L13.4497966,20.1838641 C13.4314959,20.1586434 13.4123373,20.13442 13.3930357,20.1094843 L13.4129092,20.0883958 C13.3926068,20.056193 13.3723044,20.0245602 13.352145,19.9930699 C13.3611524,19.8455927 13.3645838,19.4363612 13.1717112,19.0423761 C13.0095781,18.7117991 13.0650523,17.8963284 13.0687696,17.1184751 C13.07792,17.0814277 13.0866414,17.0438103 13.094219,17.0060504 C13.0967926,16.9927988 13.0812084,16.9916589 13.0686266,16.9965036 C13.0674828,16.7014066 13.0561878,16.4171389 13.0208731,16.1703461 C13.2107433,16.2118107 13.3638689,16.2336117 13.4340694,16.2421611 L13.4400743,16.265957 L13.4579462,16.2670969 C13.4656668,16.3253753 13.481394,16.3795216 13.503412,16.4292506 C13.5433019,16.5859897 13.6330899,16.7923153 13.806518,17.3427545 L13.8012279,17.3537262 C13.811665,17.3910586 13.8275352,17.4244013 13.8426905,17.4585989 C13.8822944,17.587125 13.9260446,17.7323223 13.9739411,17.8978958 C13.9845212,17.9343733 13.9939575,17.9704233 14.0039657,18.0069007 L13.9875237,18.0225746 C14.0005343,18.0695964 14.0198359,18.1124859 14.0435697,18.1518131 C14.2686115,19.0205751 14.3315203,19.8062654 14.1532311,20.264941 C14.0876058,20.4322243 13.9893823,20.5554782 13.8552723,20.622876 Z M34.7597156,12.1417242 C34.4069975,11.3717078 34.3599589,10.5171948 34.4138603,9.68576525 C34.4474593,9.16638892 34.5812835,8.51064959 34.2784635,8.04499202 C34.28118,7.58503406 34.2687412,7.07278223 34.236429,6.49997213 C33.984079,2.02236397 29.5329971,0.476204157 26.3486693,1.43387996 C25.6967056,1.6299463 23.5795393,1.64448029 22.7562922,1.94926656 C21.9327591,2.25490778 20.795397,3.04800754 19.0036407,2.2919552 C17.2117414,1.53590285 16.4611253,1.48189911 15.9349792,1.68138522 C15.4570155,1.86249011 14.977622,1.96351557 14.89341,1.98075687 C14.8805423,1.97534225 14.8678176,1.9689302 14.8548069,1.96351557 L14.8470863,1.96351557 C14.0525771,1.40979914 13.0070046,1.22755433 12.0151906,1.30962861 L12.0143327,1.30478395 L11.9917427,1.29680451 C11.9834502,1.24935531 11.9651495,1.059986 12.0487896,0.5 C11.2172499,0.619976644 10.4457596,1.57266529 10.3360981,1.71344549 L10.3210858,1.7204275 L10.3072173,1.7390937 C9.84069152,1.95040649 9.45523229,2.22712221 9.20945914,2.54815235 C8.51789153,3.45168193 8.0130486,3.50896294 8.0130486,3.50896294 C7.40183265,3.53047894 6.89384428,3.63677654 6.45248203,3.97262565 C6.43360939,3.91135491 6.41988384,3.77898163 6.46334809,3.49442895 C6.53855267,3.00526052 6.62819768,2.39041584 5.8265397,1.82116799 C5.02459578,1.25220511 4.72177581,0.985178709 4.64428363,0.765743992 C4.64428363,0.765743992 4.19148342,2.90907972 4.88376591,3.53703348 C5.50699172,4.10328905 5.83297356,4.25689335 5.88229975,4.59943949 C5.71344688,4.85292934 5.59820944,5.10029211 5.52472055,5.34081536 C5.26579375,6.18364416 5.47496543,6.94653603 5.31511995,7.64131764 C5.28895562,7.75616464 5.26050369,7.85946994 5.23090797,7.95223098 C5.02159332,8.60440806 4.75465994,8.7417685 4.75465994,8.7417685 C4.59152605,8.77539615 4.53333543,8.86829968 4.51617849,8.95236883 C4.50030832,9.02332889 4.51289008,9.08659448 4.51803716,9.10697056 C4.50202402,9.10625811 4.48629682,9.10682807 4.46999773,9.10526068 L4.43382518,9.10041602 C3.82990093,9.02161901 3.17164637,8.37086683 2.94917806,7.91646597 C2.87125697,7.75701958 2.72327837,7.59244354 2.72327837,7.48799832 L2.72327837,7.48785583 L2.71784534,7.4795914 L2.70354789,7.45878785 L2.69539834,7.44724615 L2.67481002,7.42045802 L2.67280837,7.41846316 L2.65493656,7.39979696 L2.65050435,7.39594973 L2.63506311,7.38540546 L2.61476073,7.38369558 L2.58044685,7.38013333 L2.58044685,7.38027582 L2.58459311,7.38640289 L2.44390621,7.38811277 L2.29435489,7.40464162 L2.29435489,7.4365594 C2.29435489,7.44781611 2.43461287,7.46135267 2.43375502,7.47617164 L2.50424145,7.48343863 C2.50238278,7.51621135 2.53826938,7.55724849 2.54098589,7.60797496 L2.55971555,7.61794927 C2.56085935,7.6404627 2.57143946,7.66468601 2.574013,7.69033422 L2.57973198,7.671953 C2.58216255,7.70273086 2.58888235,7.73336623 2.59288563,7.73336623 L2.59331456,7.73336623 C2.59760379,7.73336623 2.60232195,7.84308359 2.60761201,7.88397824 L2.61190124,7.93085747 C2.6160475,7.96291774 2.62090863,8.00594974 2.62591274,8.04114479 L2.6312028,8.08218193 C2.63806557,8.1286337 2.64564322,8.14559002 2.65379277,8.19745641 C2.82807867,9.28850292 3.32748857,9.72822729 3.51521408,10.0132074 L3.51421325,10.0132074 C3.55982212,10.1556975 3.58770214,10.1126655 3.58770214,10.1126655 C3.58770214,10.1126655 3.74125675,10.2515933 3.96486885,10.2503109 C3.7196676,10.2718269 3.54681144,10.1390262 3.54681144,10.1390262 C3.48375969,10.141306 3.45459289,10.1759311 3.44201114,10.2115536 C3.42127984,10.26342 3.43800785,10.3302479 3.44201114,10.3436419 C3.21854201,10.3182787 3.14033496,10.3496265 3.11259791,10.4274261 C3.09772856,10.4671808 3.09644179,10.4406777 3.09644179,10.4406777 L3.08314516,10.4406777 C1.62780782,10.4406777 0.577088279,8.58987407 0.498595283,7.95935549 C0.471001206,7.73621603 0.435829482,7.62721112 0.435829482,7.45152086 L0.435829482,7.45622303 L0.378496711,7.51393151 C0.369632292,7.49270049 0.332887848,7.5055246 0.32373748,7.4882833 L0.306294592,7.49740266 C0.296000429,7.47902144 0.278986465,7.47203943 0.268835276,7.4595003 L0.257969214,7.45579556 L0.232948678,7.43698687 L0.22251154,7.43214221 L0.199921571,7.4264426 L0.192343923,7.42558766 L0.164177948,7.43627442 L0.16074656,7.43983667 L0.138728489,7.46591235 L0.132151662,7.47773903 C0.126146733,7.4882833 0.120713703,7.5011074 0.115566621,7.51535641 L0.109847641,7.53103032 C0.10312784,7.55197636 0.0969799371,7.56237814 0.0919758299,7.58945125 C-0.414296844,10.2005819 1.31783912,11.8655784 1.68128028,12.4355387 L1.68070838,12.4355387 C1.71402143,12.4355387 1.7316073,12.496952 1.74018577,12.5045039 L1.74819234,12.517898 C1.74819234,12.517898 1.96179623,12.7777999 2.1043418,12.856027 L2.12121279,12.8638639 L2.0947625,12.8590192 C1.9552194,12.7806497 1.73503868,12.5238826 1.73503868,12.5238826 L1.7225999,12.5278723 L1.7225999,12.5284423 C1.43650795,13.0684797 1.83898114,13.1873164 1.83898114,13.1873164 C1.90074612,13.3638616 1.93062779,13.5010795 1.93248646,13.6126493 L1.9356319,13.6244759 C1.9356319,13.6548263 1.9344881,13.6823269 1.93148564,13.709115 L1.92962697,13.7320559 C1.9260526,13.752717 1.92190634,13.7716682 1.91733116,13.7906194 L1.90860972,13.8231071 C1.90417751,13.8363587 1.89945935,13.8488978 1.89459822,13.8612944 L1.87887102,13.8984844 L1.86071326,13.9331094 L1.8425555,13.9661671 L1.82082338,14.0009347 L1.79937721,14.0347049 C1.78851114,14.0508062 1.77778806,14.0671926 1.76749389,14.083294 L1.74976506,14.1126469 L1.73032053,14.1455621 L1.7153082,14.1770525 L1.70029588,14.2086852 L1.69915209,14.2112501 L1.69114552,14.2367558 C1.65482999,14.3450483 1.65282835,14.4795589 1.73961387,14.693294 C2.02499095,15.3960551 3.09729964,15.3936327 3.20395861,15.3916379 C3.20052722,15.3977649 3.20610323,15.4031796 3.21925688,15.4006147 C3.54681144,16.1015234 4.14287209,15.9972207 4.92680123,15.8300798 C5.7138758,15.6630815 5.91832933,16.0173118 6.65336119,15.1568142 C7.38825007,14.2964591 8.39207398,14.0654827 8.39207398,14.0654827 C8.62555132,14.485116 8.82928997,14.5892762 8.9619703,14.6016729 C8.96382897,14.6172043 8.96654548,14.6350156 8.96940497,14.6538242 L8.97269339,14.6766227 C8.97798344,14.7101078 8.98398837,14.7465853 8.99128007,14.7884774 L8.99170899,14.7916122 C8.99885772,14.8303695 9.00715024,14.8725465 9.01644358,14.9177159 C9.01930307,14.9312524 9.02244851,14.9456439 9.02573692,14.9598929 C9.0325997,14.994518 9.04074924,15.0301405 9.04975664,15.0677579 C9.05418885,15.0861391 9.05847808,15.1040929 9.06305326,15.123329 C9.07277553,15.1620863 9.08321267,15.2018411 9.09436468,15.2428782 C9.09908284,15.261117 9.10365802,15.2785007 9.10894808,15.2974519 C9.12553312,15.3557304 9.13940164,15.4158612 9.1592751,15.4778444 L9.15727345,15.4853963 L9.15727345,15.4838289 C9.15727345,15.8105587 9.42034652,16.1826003 9.64538837,16.5408203 C9.71215745,16.6468329 9.78621824,16.7628199 9.86056498,16.8846489 L9.84912702,16.90474 C9.87286078,16.9426423 9.90317137,16.9749876 9.93448279,17.004483 C10.0711664,17.2321822 10.2131401,17.4801149 10.348251,17.7407293 L10.3352403,17.7572581 L10.3712699,17.7850437 C10.5641424,18.1619299 10.7391432,18.5614721 10.8555245,18.9567396 L10.8435146,18.9724135 L10.8633881,18.9849526 C10.8885516,19.0724415 10.9104267,19.1595029 10.9291563,19.2464219 C10.91443,19.2481318 10.8977019,19.2625233 10.9117134,19.2722126 L10.9377348,19.2871741 C11.0165137,19.6707573 11.0292385,19.9682766 10.9315869,20.299851 C10.9315869,20.299851 10.1242099,20.8424532 9.97465862,21.2699235 L9.9730859,21.2699235 L9.97108426,21.3557025 C9.96679502,21.3722313 9.96465041,21.4265201 9.96150497,21.4443313 C9.95735871,21.4676997 9.95421327,21.5103042 9.95278352,21.5341001 C9.95135378,21.5514839 9.9512108,21.5784145 9.95135378,21.5959408 C9.95206865,21.6223014 9.95492814,21.6529368 9.9590744,21.6794399 C9.96121902,21.6942589 9.96264876,21.7115002 9.96622313,21.7261767 C9.97565944,21.7676413 9.98895607,21.8099609 10.0085436,21.8514255 C10.0198386,21.8755063 10.0355658,21.8971648 10.0527227,21.9168284 L10.0668772,21.9315049 C10.0854639,21.9494586 10.1053373,21.9666999 10.1280702,21.9802365 L10.1339322,21.9832288 C10.1559503,21.9961954 10.17997,22.0067396 10.2049905,22.0160015 L10.2265797,22.0239809 C10.2537448,22.0328153 10.2821968,22.0403673 10.3116495,22.0460669 L10.3182263,22.0467794 C10.3469642,22.051624 10.3764169,22.0550438 10.4060127,22.0568962 L10.4274588,22.0205612 C10.4593421,22.0221286 10.4915114,21.9823738 10.5235377,21.9823738 L10.5261112,21.9823738 C10.5577086,21.9823738 10.58902,22.0145766 10.6197595,22.0098744 L10.6354867,22.0261183 C10.7545845,22.0057422 10.8598137,21.9749644 10.9181473,21.9221005 L10.9242952,21.9305075 L10.9315869,21.9561557 C10.9360191,21.9706897 10.9614686,21.9668424 10.9684743,21.9554432 L10.9776247,21.9594329 C10.9920651,21.96556 11.009365,21.972827 11.0286666,21.9796665 L11.0499698,21.9869335 C11.0649821,21.9922057 11.0815671,21.9971928 11.0994389,22.0026074 L11.1288917,22.0103019 C11.1483362,22.0152891 11.1692105,22.0201337 11.1916575,22.0246934 L11.2202524,22.0302505 C11.2535654,22.0365201 11.2885942,22.0415072 11.3260535,22.0453545 L11.3446402,22.0463519 C11.3773814,22.0492017 11.4118382,22.0509116 11.4480108,22.051624 L11.4850411,22.051339 C11.5189261,22.0510541 11.5538119,22.0494867 11.5902704,22.0466369 L11.6268718,22.0437871 C11.8281799,22.023696 12.0660895,21.9608578 12.3333088,21.8247798 L12.3314501,21.8272022 L12.3438889,21.8205051 L12.3596161,21.815233 L12.3650491,21.8095334 L12.3920713,21.7952844 C12.4112299,21.7848826 12.4359645,21.7774731 12.4627007,21.7712036 L12.4820023,21.7669288 C12.5088815,21.7619417 12.5380483,21.758237 12.5702175,21.7558146 L12.5988124,21.7549597 C12.6232611,21.7536773 12.6489965,21.7256067 12.6758757,21.7256067 C12.6913169,21.7256067 12.7064722,21.6973937 12.7229143,21.6973937 L12.7260597,21.6973937 C12.836865,21.6973937 12.9618247,21.736436 13.088643,21.7438455 L13.0882141,21.7767607 L13.0524705,21.785595 L13.0175847,21.7955694 L13.0175847,21.7944294 L13.0524705,21.793717 L13.0703423,21.8018389 L13.0817803,21.8336142 C13.083067,21.8465808 13.0896439,21.8591199 13.0922174,21.8709466 L13.1007959,21.8948849 C13.1050851,21.907994 13.1116619,21.9199632 13.1176669,21.9312199 L13.1261024,21.9466088 C13.1366825,21.9618553 13.1492642,21.9756768 13.1639906,21.9863636 C13.1888682,22.0044598 13.2163193,22.0204187 13.2450571,22.0348102 L13.2609273,22.0427896 C13.2876635,22.0556137 13.3159725,22.0668705 13.3448533,22.0768448 L13.3700168,22.0853942 C13.3978969,22.0939436 13.4257769,22.101923 13.4537999,22.1086201 L13.4842535,22.1151746 C13.5065575,22.1200193 13.5288615,22.124294 13.5507366,22.1279987 C13.5657489,22.1305635 13.5799034,22.1331283 13.5942008,22.1348382 C13.6136454,22.137688 13.632518,22.1401104 13.6508187,22.1422477 L13.6857045,22.1459525 C13.7075796,22.1478048 13.727882,22.1493722 13.7474695,22.1507971 L13.7790669,22.152507 C13.7972246,22.1533619 13.8142386,22.1392554 13.8292509,22.1392554 L13.8462649,22.1248639 C13.8608483,22.1248639 13.8731441,22.1248639 13.8828663,22.1248639 L13.8878704,22.1515096 L13.912605,22.158919 L13.9196108,22.1847098 L13.895734,22.1894119 L13.8754317,22.203091 L13.8754317,22.2039459 L13.9030257,22.2075082 C13.9114612,22.2268868 13.935052,22.2465504 13.9479197,22.2656441 L13.9643618,22.2797506 C13.9793741,22.2999842 13.9992476,22.3199328 14.01955,22.339169 L14.0234103,22.3408789 C14.0428548,22.3589751 14.0664456,22.3756465 14.0907513,22.3913204 L14.1096239,22.4028621 C14.1632393,22.4346373 14.2282927,22.4605705 14.305356,22.4778118 L14.3308054,22.483084 C14.4105852,22.4983304 14.5026608,22.50403 14.607747,22.497048 L14.6424898,22.4940557 C14.6932458,22.489781 14.7787445,22.4826565 14.8356484,22.4721122 L14.8762531,22.4709723 L14.8762531,22.4706873 L14.8762531,22.4709723 L14.8460855,22.4702599 C14.9375892,22.4524486 15.0210863,22.4260879 15.1286031,22.3903229 C15.3500706,22.3299071 15.6059949,22.2563823 15.6140015,22.2445556 C15.616432,22.2404234 15.5926983,22.2437006 15.5586704,22.2475479 L15.5678207,22.2445556 L15.5859785,22.2332989 C15.6015627,22.2295941 15.616432,22.2260319 15.6317303,22.2231821 C15.6550352,22.2183374 15.6773392,22.2143477 15.6996432,22.2107854 C15.7202315,22.2075082 15.740105,22.2046584 15.7594065,22.2019511 C15.7811387,22.1993862 15.801441,22.1978188 15.8221723,22.196109 C15.840759,22.1945416 15.8593457,22.1929742 15.8775035,22.1921192 C15.897091,22.1911218 15.9161066,22.1909793 15.9349792,22.1906943 C15.9522791,22.1905518 15.9694361,22.1901244 15.9858781,22.1904094 C16.0044648,22.1906943 16.0220507,22.1916918 16.0399225,22.1922617 C16.0553637,22.1929742 16.0715199,22.1934016 16.0865322,22.1943991 L16.1126965,22.1963939 C16.1650252,22.2000987 16.2153522,22.2046584 16.2628197,22.2083631 L16.2902708,22.210358 C16.3091435,22.2114979 16.3281591,22.2130653 16.3467458,22.2139202 L16.3819175,22.2146327 C16.3970728,22.2149176 16.4128,22.2152026 16.4280982,22.2146327 L16.4648427,22.2123528 C16.4791401,22.2112129 16.4934376,22.210073 16.5075921,22.2082206 L16.5449084,22.2018086 C16.5587769,22.1989588 16.5729314,22.1956815 16.5867999,22.1918343 L16.6244022,22.1802926 C16.6386997,22.1751629 16.6531401,22.1690358 16.6674375,22.1626238 L16.7047539,22.144955 C16.7200521,22.1371181 16.7354934,22.1274287 16.7509346,22.1174544 L16.7875361,22.0939436 C16.804979,22.0814044 16.8234227,22.0663005 16.8414375,22.0510541 L16.8736068,22.0246934 C16.9029165,21.9977628 16.9332271,21.9679823 16.9645385,21.9339272 C16.9929905,21.9027219 17.0160093,21.8693792 17.0370266,21.8350391 L17.0541835,21.8071111 L17.0623331,21.8103883 C17.0696248,21.7885873 17.0747719,21.7686387 17.079633,21.7492601 C17.0876396,21.7293115 17.0983627,21.7102178 17.1046535,21.6895567 C17.253204,21.2216193 16.8733208,20.6153241 16.6933159,20.3642565 L16.692887,20.3632591 C16.6808771,20.3468728 16.6707259,20.3331937 16.6610037,20.3199421 L16.6544269,20.3112502 L16.6304071,20.2793325 L16.625689,20.2733479 L16.6069593,20.2496945 L16.6073882,20.2439949 L16.6049577,20.2414301 L16.7616577,18.462014 L16.7349215,18.4289563 L16.7349215,18.4282439 C17.0208705,18.3195239 16.9303676,18.2056744 16.978693,18.0905424 C17.208453,17.5411007 17.1333914,16.9681481 17.1087998,16.8800892 L17.0647636,16.8792343 L17.0208705,16.8779518 L17.0208705,16.8749596 C17.0208705,16.5772978 17.4443609,15.5731702 17.4856805,15.4229857 L17.5425844,15.4239831 C17.7508982,15.5731702 19.4091164,16.6717687 22.3632553,16.5403929 C22.7475708,16.5231516 23.1168739,16.4937986 23.4595837,16.4540439 C23.4615854,16.4645881 23.5956954,17.0591992 23.9126699,17.5512175 C23.8989443,17.5537823 23.8856477,17.5636141 23.8933683,17.571451 C23.923393,17.6018014 23.9555622,17.630157 23.9877315,17.6573726 C24.0482097,17.7405868 24.1148358,17.8193838 24.1874669,17.8892039 C24.2645301,17.9632988 24.3248653,18.0258519 24.3739056,18.0815655 C24.3591792,18.0809956 24.3415934,18.0938197 24.3516016,18.1063588 C24.3962096,18.1653497 24.4465366,18.2159337 24.5011529,18.2591082 C24.5892252,18.4387881 24.4688407,18.5278444 24.3312992,18.7740673 C23.9292549,19.4927872 24.1514373,19.9667092 23.6008425,20.1718949 C23.2241047,20.3121052 22.4955067,20.8096805 22.3436678,21.219767 C22.3308001,21.233731 22.320077,21.2505448 22.3120705,21.2714909 C22.3120705,21.2714909 22.3186473,21.2632264 22.3330877,21.2532521 L22.331658,21.2578118 C22.3282266,21.2710634 22.3249382,21.28403 22.3226506,21.2967116 L22.3186473,21.3206499 C22.3172175,21.333759 22.3165027,21.3464406 22.3165027,21.3589798 L22.3165027,21.3803533 C22.3172175,21.3955997 22.3195051,21.4104187 22.3227935,21.4253801 L22.3249382,21.4372068 C22.3297993,21.455873 22.336805,21.4739693 22.3458124,21.491638 L22.3532471,21.5040347 C22.3611107,21.5171437 22.3696892,21.5303953 22.3801263,21.5432194 L22.3941378,21.5590358 L22.4281657,21.5918085 L22.4470384,21.60734 C22.4609069,21.6178842 22.477063,21.628286 22.4936481,21.6382603 L22.5138075,21.6506569 C22.538542,21.6641935 22.5651353,21.6113297 22.5951599,21.6231564 C22.8107655,21.7102178 22.9643201,21.6973937 23.0741245,21.6973937 L23.0749823,21.6973937 C23.396103,21.6973937 23.3376265,21.5969382 23.3376265,21.5969382 L23.3442033,21.6344131 L23.3512091,21.6555016 L23.3649346,21.6734554 L23.3802329,21.6875619 L23.3972468,21.700101 L23.4211236,21.715205 L23.4394243,21.7260342 C23.458154,21.7368634 23.4796001,21.7484051 23.503048,21.7602318 L23.525352,21.7717735 C23.5382197,21.7781856 23.5522312,21.7843126 23.5665286,21.7907247 L23.5935508,21.8025514 C23.6089921,21.8091059 23.6244333,21.815233 23.6405894,21.8213601 L23.6697562,21.8320468 C23.6871991,21.8383164 23.704642,21.8445859 23.7227998,21.8502855 L23.7433881,21.8559851 C23.7801325,21.8669569 23.8181637,21.8763612 23.8581966,21.8843407 L23.8940832,21.8911802 C23.9129558,21.8944575 23.9319714,21.8964523 23.951416,21.8987322 C23.9654275,21.9004421 23.979439,21.9017245 23.9937364,21.9027219 C24.013181,21.9042893 24.0323395,21.9050017 24.05207,21.9054292 C24.0677972,21.9057142 24.0835244,21.9050017 24.0993946,21.9047168 C24.1185532,21.9040043 24.1377117,21.9037193 24.1574422,21.9020094 C24.1806041,21.8997296 24.2040519,21.8960249 24.2274997,21.8917502 C24.2449426,21.8889004 24.2623855,21.886193 24.2799714,21.8819183 C24.3089952,21.8756488 24.338162,21.8685243 24.3674717,21.8588349 L24.3666139,21.8568401 C24.4934323,21.8138081 24.6212515,21.7387158 24.7434947,21.6174568 L24.7430657,21.6602038 L24.7479269,21.6973937 L24.7516442,21.6973937 L24.7569343,21.6602038 C24.7845283,21.6844271 24.8960484,21.7525374 25.0787698,21.8165154 L25.0837739,21.8078235 C25.1117969,21.8177978 25.1423935,21.8212176 25.1738479,21.829482 L25.1834272,21.829482 C25.2141667,21.8371765 25.2467649,21.8420211 25.2806498,21.8475782 L25.2953762,21.8497156 C25.3282603,21.8548452 25.3627172,21.85741 25.3981748,21.8599749 L25.4193351,21.8615423 C25.4537919,21.8632521 25.4901074,21.8626822 25.5272808,21.8615423 L25.5547319,21.8611148 C25.5909045,21.8592624 25.6289357,21.8547027 25.6673958,21.8495731 L25.7015667,21.8454409 C25.739169,21.8395988 25.778201,21.8309069 25.817948,21.821645 C25.8319595,21.8185103 25.845542,21.8158029 25.8598395,21.8119557 C25.8985856,21.8014114 25.9387614,21.7885873 25.9793662,21.7744808 C25.9955223,21.7690662 26.0116784,21.7639366 26.0285494,21.757667 C26.0684393,21.7427055 26.1094729,21.7246093 26.1507926,21.7058006 C26.1699512,21.6972512 26.1885378,21.6894142 26.2078394,21.6798674 C26.2485871,21.6602038 26.2903357,21.6369779 26.3322272,21.6131821 C26.3473825,21.6047751 26.3616799,21.5986481 26.3768352,21.5895287 L26.3754055,21.5885313 L26.3768352,21.5895287 L26.3758344,21.5881038 C26.3974236,21.5754222 26.4182978,21.5654479 26.4401729,21.5516263 C27.3855203,20.9545929 26.6557785,20.2821823 26.4940743,20.148954 L26.4943603,20.1412596 C26.4843521,20.1260131 26.473486,20.1110517 26.4629059,20.0960902 C26.4596175,19.9380687 26.4553282,19.1036468 26.7045328,18.5594772 C26.7186873,18.5286994 26.7316979,18.4994889 26.7449946,18.4704209 C26.804329,18.3883467 26.8502238,18.296868 26.8755303,18.2013997 L26.860089,18.19741 C27.0027776,17.8183863 27.0112131,17.5191572 26.7784506,16.8731072 L26.7933199,16.8557234 C26.7810241,16.8299327 26.7654399,16.8057094 26.7484259,16.7819135 C26.5635599,16.2085335 26.6879477,15.6756206 26.8289206,15.3101335 C27.3384817,14.9278327 27.7107872,14.4628875 27.9597058,13.9177205 L27.9619934,13.917293 C27.8740641,14.1365853 27.3210388,15.8115561 30.3738301,17.055067 C30.3944184,17.0757281 30.4171514,17.1012338 30.4414571,17.1298743 C30.4937857,17.1974146 30.5759961,17.3119766 30.6627816,17.4618762 L30.6623526,17.4634436 L30.6647832,17.4657234 C30.9079828,17.8884915 31.1820649,18.591965 30.9121291,19.3394679 C30.811904,19.6146162 30.638047,19.8956067 30.3615343,20.1703275 C30.3615343,20.1703275 29.6335082,20.5838337 29.4482133,21.0641678 C29.4088953,21.1640533 29.3958846,21.2667887 29.4146143,21.3693815 L29.4128986,21.370379 L29.4194754,21.4045766 C29.4291977,21.441054 29.4419224,21.4742542 29.4570777,21.5044621 L29.4762363,21.5356675 C29.4868164,21.5534787 29.4975395,21.5718599 29.5101212,21.5873914 L29.5378583,21.6168868 C29.5502971,21.6297109 29.5621639,21.643105 29.5760325,21.6543617 L29.6096315,21.6787275 C29.6237859,21.6887018 29.6379404,21.6988186 29.6529527,21.7072255 L29.690555,21.7256067 C29.7061392,21.7333012 29.7221524,21.7405682 29.7390234,21.7469802 C29.7516051,21.7518249 29.7647588,21.7558146 29.7777695,21.7599468 C29.7954983,21.7655039 29.8133701,21.7709186 29.8313849,21.7754783 C29.8439667,21.7783281 29.8568344,21.7810354 29.869845,21.7836002 C29.8892896,21.7874474 29.9087341,21.7907247 29.9286076,21.793432 L29.9642082,21.7978492 C29.9856544,21.8002715 30.0072435,21.8018389 30.0286897,21.8029788 L30.0582854,21.8045462 C30.0827341,21.8051162 30.1066108,21.8052587 30.1306305,21.8049737 L30.150075,21.7531073 C30.1792418,21.7528223 30.2074078,21.6973937 30.2347159,21.6973937 L30.2374325,21.6973937 C30.3819797,21.6973937 30.4989328,21.7123552 30.5386797,21.7025233 L30.542397,21.7334437 L30.5681325,21.7451279 C30.6369032,21.7847401 30.9849031,21.9816614 31.3280419,21.9695497 C31.3726499,21.9678399 31.4166861,21.9641351 31.4601503,21.9545883 C31.4754486,21.9511685 31.4903179,21.9477488 31.5054732,21.9436165 C31.5327813,21.9356371 31.5603754,21.9285126 31.5866827,21.9183958 C31.6036967,21.9122687 31.6195669,21.9058567 31.635723,21.8988747 C31.6595997,21.8883304 31.6826186,21.8780711 31.7054945,21.8665294 C31.7212217,21.8584075 31.7362341,21.850713 31.7513893,21.8425911 C31.7722636,21.8307644 31.7918511,21.8190802 31.8115816,21.8069686 C31.8257361,21.7978492 31.8400335,21.7895848 31.8533302,21.7807504 C31.8694863,21.7699211 31.8834978,21.7596619 31.8979382,21.7494026 C31.9677098,21.6996735 32.0211822,21.6543617 32.0456308,21.6317058 L32.0466317,21.634983 L32.084091,21.6312783 L32.0979595,21.6386878 L32.1095404,21.6441024 C32.1225511,21.649517 32.1367056,21.6545042 32.1528617,21.6587789 L32.1607253,21.6612012 C32.1803128,21.6660459 32.2020449,21.6701781 32.2254928,21.6734554 L32.2382175,21.6750228 C32.2593777,21.6774451 32.2815388,21.6794399 32.3054155,21.6807224 L32.3184262,21.6818623 C32.3467351,21.6830022 32.3763308,21.6834297 32.4074993,21.6832872 L32.4076423,21.6832872 C32.4380958,21.6827172 32.4699791,21.6814348 32.5024343,21.6794399 L32.5177326,21.6784425 C32.5846447,21.6737403 32.6547022,21.6657609 32.7266184,21.6547892 L32.7416307,21.6523668 C32.7752297,21.6469522 32.8089717,21.6408251 32.8431426,21.6342706 L32.8502913,21.6325607 C32.8870357,21.6252937 32.9239231,21.6168868 32.9602387,21.6076249 L32.9713907,21.6047751 C33.0035599,21.5966532 33.0351573,21.5876763 33.0667547,21.578272 L33.0836257,21.5731423 C33.1526823,21.5517688 33.2187366,21.5275455 33.2800726,21.5003299 L33.2978014,21.492493 C33.3272542,21.4788139 33.3558491,21.4648499 33.3828713,21.4501734 L33.384301,21.449176 C33.4117521,21.434072 33.4377735,21.4179707 33.4620791,21.4010143 L33.4752328,21.3914675 C33.4956781,21.377076 33.5146937,21.2717758 33.5321366,21.2561019 L33.5391424,21.1603486 L33.5389994,21.1603486 C33.5880397,21.1603486 33.6247841,21.1553614 33.6436567,21.1015002 C33.6801152,21.0027546 33.6582401,20.9347868 33.5502944,20.8089681 C33.1223717,20.3098253 33.0175714,19.7070923 33.182421,19.1686223 C33.2377522,18.9906522 33.3221071,18.8334857 33.4343421,18.6824462 C33.6891226,18.3390451 33.9250305,18.12531 34.023111,17.7931656 C34.0487035,17.7073866 34.0641447,17.6154805 34.0692918,17.5108928 C34.0765835,17.5703111 34.0833033,17.6318668 34.0871636,17.6927101 C34.1327725,17.4521869 34.1107544,17.1501079 33.9846509,16.7125209 C33.6512344,15.5567839 33.0614646,14.3725488 33.4210455,13.7299186 C33.7810552,13.0864334 33.5417159,13.0216004 33.5561564,12.4091781 C33.5610175,12.1900283 33.686978,11.9449454 33.8348136,11.5151953 C33.8727019,11.7256532 33.9471916,11.9281316 34.045844,12.123058 C34.2091209,12.4450856 34.4368792,12.7292108 34.5938652,13.055798 C34.7763007,13.4352491 34.7936006,13.8583022 34.7427017,14.2688161 C34.7285472,14.3816682 34.5974396,14.663941 34.651055,14.771806 C34.6616351,14.793322 34.6953771,14.765109 34.7028118,14.7552772 C34.8845323,14.5262956 34.9194181,14.0781643 34.9601659,13.8042984 C35.0450927,13.2326282 35.0013425,12.6702199 34.7597156,12.1417242 L34.7597156,12.1417242 Z" id="Fill-797" fill="#F9F6EF" mask="url(#mask-2)"></path>
                </g>
            </g>
        </g>
    </g>
</svg>